<?xml version="1.0" encoding="utf-8"?>
<!-- Generator: Adobe Illustrator 25.3.1, SVG Export Plug-In . SVG Version: 6.00 Build 0)  -->
<svg version="1.1" id="Layer_1" xmlns="http://www.w3.org/2000/svg" xmlns:xlink="http://www.w3.org/1999/xlink" x="0px" y="0px"
	 viewBox="0 0 141.73 141.73" style="enable-background:new 0 0 141.73 141.73;" xml:space="preserve">
<style type="text/css">
	.st0{fill:#FFFFFF;}
	.st1{fill:#FDC300;}
	.st2{fill:none;stroke:#000000;stroke-width:0.4;stroke-linecap:round;stroke-linejoin:round;stroke-miterlimit:10;}
</style>
<g>
	<g id="XMLID_9_">
		<g>
			<g id="XMLID_29_">
				<g>
					<path class="st0" d="M115.55,70.17c1,2.08,4.54,11.41,2.84,17.28c-0.79,2.86-2.82,4.89-6.95,4.89s-6.16-2.03-6.95-4.89
						c-1.69-5.87,1.84-15.2,2.84-17.28c1.31,0.45,2.7,0.69,4.11,0.69S114.24,70.63,115.55,70.17z"/>
					<path class="st0" d="M135.31,79.63c0,4.27-2.84,5.56-3.99,5.56c-2.27,0-3.17-1.38-3.17-1.38h-0.05c0.02-0.31,0.05-0.64,0.05-1
						c0-9.14-8.5-14.97-8.5-14.97c0.48-0.38,0.93-0.81,1.34-1.27c0-0.72-0.07-1.43-0.19-2.12C120.8,64.45,135.31,69.67,135.31,79.63
						z"/>
					<path class="st0" d="M128.15,82.8c0,0.36-0.02,0.69-0.05,1c-0.29,3.89-2.32,6.16-4.73,6.16c-3.41,0-4.96-2.51-4.96-2.51h-0.02
						c1.69-5.87-1.84-15.2-2.84-17.28c1.48-0.5,2.89-1.29,4.11-2.34C119.65,67.83,128.15,73.66,128.15,82.8z"/>
					<path class="st1" d="M120.8,64.45c0.12,0.69,0.19,1.41,0.19,2.12c-0.41,0.45-0.86,0.88-1.34,1.27
						c-1.22,1.05-2.63,1.84-4.11,2.34c-1.31,0.45-2.7,0.69-4.11,0.69s-2.79-0.24-4.11-0.69c-1.48-0.5-2.89-1.29-4.11-2.34
						c-0.48-0.38-0.93-0.81-1.34-1.27c0-0.72,0.07-1.43,0.19-2.12c0.91-4.49,4.75-7.9,9.36-7.9
						C116.05,56.54,119.89,59.96,120.8,64.45z"/>
					<path class="st0" d="M104.5,87.45h-0.02c0,0-1.55,2.51-4.96,2.51c-2.41,0-4.44-2.27-4.73-6.16c-0.02-0.31-0.05-0.64-0.05-1
						c0-9.14,8.5-14.97,8.5-14.97c1.22,1.05,2.63,1.84,4.11,2.34C106.34,72.25,102.8,81.58,104.5,87.45z"/>
					<path class="st0" d="M101.9,66.57c0.41,0.45,0.86,0.88,1.34,1.27c0,0-8.5,5.82-8.5,14.97c0,0.36,0.02,0.69,0.05,1h-0.05
						c0,0-0.91,1.38-3.17,1.38c-1.15,0-3.99-1.29-3.99-5.56c0-9.95,14.51-15.18,14.51-15.18C101.97,65.14,101.9,65.85,101.9,66.57z"
						/>
					<path class="st0" d="M98.1,26.21c1.19,3.63-0.67,7.52-4.18,8.86c-0.14-0.07-0.26-0.12-0.41-0.17
						c-0.81-0.26-1.62-0.38-2.39-0.36l-10.72,0.29c-0.05-2.08-0.79-4.01-1.96-5.56l8.5-6.52c0.62-0.48,1.34-0.86,2.12-1.12
						c0.14-0.05,0.29-0.1,0.43-0.1C93.16,20.55,96.93,22.58,98.1,26.21z"/>
					<path class="st0" d="M93.92,35.06c3.51,1.34,5.37,5.23,4.18,8.86c-1.17,3.63-4.92,5.66-8.55,4.73h-0.02v-0.02
						c-0.07-0.14-0.14-0.26-0.24-0.38c-0.5-0.67-1.1-1.24-1.74-1.69l-8.83-6.06c1.07-1.55,1.69-3.41,1.69-5.42c0-0.07,0-0.17,0-0.24
						l10.72-0.29c0.76-0.02,1.58,0.1,2.39,0.36C93.66,34.94,93.78,34.99,93.92,35.06z"/>
					<path class="st0" d="M89.56,48.64c2,3.15,1.24,7.35-1.86,9.6c-3.06,2.24-7.3,1.67-9.69-1.19v-0.02
						c0.02-0.17,0.02-0.31,0.02-0.48c0-0.84-0.14-1.65-0.41-2.39l-3.58-10.1c1.93-0.67,3.56-1.93,4.68-3.58l8.83,6.06
						c0.64,0.45,1.24,1.03,1.74,1.69c0.1,0.12,0.17,0.24,0.24,0.38v0.02H89.56z"/>
					<path class="st0" d="M87.69,11.89c3.1,2.24,3.87,6.49,1.81,9.64c-0.14,0-0.29,0.05-0.43,0.1c-0.79,0.26-1.5,0.64-2.12,1.12
						l-8.5,6.52c-1.22-1.58-2.91-2.77-4.87-3.34l3.03-10.29c0.24-0.74,0.6-1.48,1.07-2.17c0.1-0.12,0.19-0.24,0.31-0.36
						C80.37,10.22,84.61,9.67,87.69,11.89z"/>
					<path class="st1" d="M80.41,34.82c0,0.07,0,0.17,0,0.24c0,2-0.62,3.87-1.69,5.42c-1.12,1.65-2.74,2.91-4.68,3.58
						c-1,0.36-2.05,0.55-3.17,0.55c-0.93,0-1.86-0.14-2.72-0.41c-1.96-0.57-3.65-1.77-4.87-3.34c-1.17-1.55-1.91-3.48-1.96-5.56
						c0-0.07,0-0.17,0-0.24c0-2,0.62-3.87,1.69-5.42c1.12-1.65,2.74-2.91,4.68-3.58c1-0.36,2.05-0.55,3.17-0.55
						c0.93,0,1.86,0.14,2.72,0.41c1.96,0.57,3.65,1.77,4.87,3.34C79.63,30.81,80.37,32.75,80.41,34.82z"/>
					<path class="st0" d="M78,57.05c-0.26,3.75-3.34,6.66-7.14,6.66s-6.9-2.94-7.14-6.68c0.12-0.12,0.21-0.24,0.31-0.36
						c0.48-0.69,0.84-1.43,1.07-2.17l3.03-10.29c0.86,0.26,1.79,0.41,2.72,0.41c1.12,0,2.17-0.19,3.17-0.55l3.58,10.1
						c0.26,0.74,0.41,1.55,0.41,2.39c0,0.17,0,0.31-0.02,0.48V57.05z"/>
					<path class="st0" d="M78,13.1c-0.12,0.12-0.21,0.24-0.31,0.36c-0.48,0.69-0.84,1.43-1.07,2.17l-3.03,10.29
						c-0.86-0.26-1.79-0.41-2.72-0.41c-1.12,0-2.17,0.19-3.17,0.55l-3.58-10.1c-0.26-0.74-0.41-1.55-0.41-2.39
						c0-0.14,0-0.31,0.02-0.45c0.21-3.75,3.32-6.71,7.14-6.71C74.66,6.42,77.76,9.36,78,13.1z"/>
					<path class="st0" d="M68.15,44.2l-3.03,10.29c-0.24,0.74-0.6,1.48-1.07,2.17c-0.1,0.12-0.19,0.24-0.31,0.36
						c-2.36,2.89-6.61,3.46-9.69,1.22c-3.1-2.24-3.87-6.47-1.84-9.62c0.14,0,0.31-0.05,0.45-0.1c0.79-0.26,1.5-0.64,2.12-1.12
						l8.5-6.54C64.49,42.44,66.19,43.63,68.15,44.2z"/>
					<path class="st0" d="M64.11,15.97l3.58,10.1c-1.93,0.67-3.56,1.93-4.68,3.58l-8.83-6.06c-0.64-0.43-1.24-1-1.74-1.69
						c-0.1-0.12-0.17-0.24-0.21-0.36c-2.05-3.15-1.29-7.4,1.81-9.64c3.08-2.22,7.33-1.67,9.69,1.24c-0.02,0.14-0.02,0.31-0.02,0.45
						C63.71,14.42,63.85,15.23,64.11,15.97z"/>
					<path class="st0" d="M63.28,40.86l-8.5,6.54c-0.62,0.48-1.34,0.86-2.12,1.12c-0.14,0.05-0.31,0.1-0.45,0.1
						c-3.63,0.95-7.4-1.07-8.57-4.7c-1.19-3.63,0.67-7.52,4.18-8.86c0.14,0.07,0.26,0.12,0.41,0.17c0.81,0.26,1.62,0.38,2.41,0.36
						l10.69-0.29C61.37,37.38,62.11,39.31,63.28,40.86z"/>
					<path class="st0" d="M54.18,23.58l8.83,6.06c-1.07,1.55-1.69,3.41-1.69,5.42c0,0.07,0,0.17,0,0.24l-10.69,0.29
						c-0.79,0.02-1.6-0.1-2.41-0.36c-0.14-0.05-0.26-0.1-0.41-0.17c-3.51-1.34-5.37-5.23-4.18-8.86c1.17-3.63,4.94-5.66,8.59-4.68
						c0.05,0.12,0.12,0.24,0.21,0.36C52.94,22.58,53.54,23.15,54.18,23.58z"/>
					<path class="st0" d="M54.16,79.63c0,4.27-2.84,5.56-3.99,5.56C47.9,85.19,47,83.8,47,83.8h-0.05c0.02-0.31,0.05-0.64,0.05-1
						c0-9.14-8.5-14.97-8.5-14.97c0.48-0.38,0.93-0.81,1.34-1.27c0-0.72-0.07-1.43-0.19-2.12C39.65,64.45,54.16,69.67,54.16,79.63z"
						/>
					<path class="st0" d="M47,82.8c0,0.36-0.02,0.69-0.05,1c-0.29,3.89-2.32,6.16-4.73,6.16c-3.41,0-4.96-2.51-4.96-2.51h-0.02
						c1.69-5.87-1.84-15.2-2.84-17.28c1.48-0.5,2.89-1.29,4.11-2.34C38.5,67.83,47,73.66,47,82.8z"/>
					<path class="st1" d="M39.65,64.45c0.12,0.69,0.19,1.41,0.19,2.12c-0.41,0.45-0.86,0.88-1.34,1.27
						c-1.22,1.05-2.63,1.84-4.11,2.34c-1.31,0.45-2.7,0.69-4.11,0.69s-2.79-0.24-4.11-0.69c-1.48-0.5-2.89-1.29-4.11-2.34
						c-0.48-0.38-0.93-0.81-1.34-1.27c0-0.72,0.07-1.43,0.19-2.12c0.91-4.49,4.75-7.9,9.36-7.9S38.74,59.96,39.65,64.45z"/>
					<path class="st0" d="M34.39,70.17c1,2.08,4.54,11.41,2.84,17.28c-0.79,2.86-2.82,4.89-6.95,4.89s-6.16-2.03-6.95-4.89
						c-1.69-5.87,1.84-15.2,2.84-17.28c1.31,0.45,2.7,0.69,4.11,0.69S33.08,70.63,34.39,70.17z"/>
					<path class="st0" d="M23.34,87.45h-0.02c0,0-1.55,2.51-4.96,2.51c-2.41,0-4.44-2.27-4.73-6.16c-0.02-0.31-0.05-0.64-0.05-1
						c0-9.14,8.5-14.97,8.5-14.97c1.22,1.05,2.63,1.84,4.11,2.34C25.18,72.25,21.65,81.58,23.34,87.45z"/>
					<path class="st0" d="M20.74,66.57c0.41,0.45,0.86,0.88,1.34,1.27c0,0-8.5,5.82-8.5,14.97c0,0.36,0.02,0.69,0.05,1h-0.05
						c0,0-0.91,1.38-3.17,1.38c-1.15,0-3.99-1.29-3.99-5.56c0-9.95,14.51-15.18,14.51-15.18C20.81,65.14,20.74,65.85,20.74,66.57z"
						/>
				</g>
				<g>
					<path class="st2" d="M115.55,70.17c1.48-0.5,2.89-1.29,4.11-2.34"/>
					<path class="st2" d="M107.34,70.17c1.31,0.45,2.7,0.69,4.11,0.69s2.79-0.24,4.11-0.69"/>
					<path class="st2" d="M103.23,67.83c1.22,1.05,2.63,1.84,4.11,2.34"/>
					<path class="st2" d="M102.09,64.45c-0.12,0.69-0.19,1.41-0.19,2.12c0.41,0.45,0.86,0.88,1.34,1.27"/>
					<path class="st2" d="M34.39,70.17c1.48-0.5,2.89-1.29,4.11-2.34"/>
					<path class="st2" d="M38.5,67.83c0.48-0.38,0.93-0.81,1.34-1.27"/>
					<path class="st2" d="M26.18,70.17c1.31,0.45,2.7,0.69,4.11,0.69s2.79-0.24,4.11-0.69"/>
					<path class="st2" d="M22.08,67.83c1.22,1.05,2.63,1.84,4.11,2.34"/>
					<path class="st2" d="M20.74,66.57c0.41,0.45,0.86,0.88,1.34,1.27"/>
					<path class="st2" d="M102.09,64.45c0.91-4.49,4.75-7.9,9.36-7.9c4.61,0,8.45,3.41,9.36,7.9c0.12,0.69,0.19,1.41,0.19,2.12
						c-0.41,0.45-0.86,0.88-1.34,1.27"/>
					<path class="st2" d="M20.74,66.57c0-0.72,0.07-1.43,0.19-2.12c0.91-4.49,4.75-7.9,9.36-7.9s8.45,3.41,9.36,7.9
						c0.12,0.69,0.19,1.41,0.19,2.12"/>
					<path class="st2" d="M78.72,40.48c1.07-1.55,1.69-3.41,1.69-5.42c0-0.07,0-0.17,0-0.24c-0.05-2.08-0.79-4.01-1.96-5.56
						c-1.22-1.58-2.91-2.77-4.87-3.34c-0.86-0.26-1.79-0.41-2.72-0.41c-1.12,0-2.17,0.19-3.17,0.55c-1.93,0.67-3.56,1.93-4.68,3.58
						c-1.07,1.55-1.69,3.41-1.69,5.42c0,0.07,0,0.17,0,0.24c0.05,2.08,0.79,4.01,1.96,5.56c1.22,1.58,2.91,2.77,4.87,3.34
						c0.86,0.26,1.79,0.41,2.72,0.41c1.12,0,2.17-0.19,3.17-0.55C75.97,43.39,77.6,42.13,78.72,40.48z"/>
					<path class="st2" d="M67.69,26.06l-3.58-10.1c-0.26-0.74-0.41-1.55-0.41-2.39c0-0.14,0-0.31,0.02-0.45
						c0.21-3.75,3.32-6.71,7.14-6.71c3.8,0,6.9,2.94,7.14,6.68"/>
					<path class="st2" d="M63.01,29.64l-8.83-6.06c-0.64-0.43-1.24-1-1.74-1.69c-0.1-0.12-0.17-0.24-0.21-0.36
						c-2.05-3.15-1.29-7.4,1.81-9.64c3.08-2.22,7.33-1.67,9.69,1.24"/>
					<path class="st2" d="M61.32,35.3l-10.69,0.29c-0.79,0.02-1.6-0.1-2.41-0.36c-0.14-0.05-0.26-0.1-0.41-0.17
						c-3.51-1.34-5.37-5.23-4.18-8.86c1.17-3.63,4.94-5.66,8.59-4.68"/>
					<path class="st2" d="M63.28,40.86l-8.5,6.54c-0.62,0.48-1.34,0.86-2.12,1.12c-0.14,0.05-0.31,0.1-0.45,0.1
						c-3.63,0.95-7.4-1.07-8.57-4.7c-1.19-3.63,0.67-7.52,4.18-8.86"/>
					<path class="st2" d="M68.15,44.2l-3.03,10.29c-0.24,0.74-0.6,1.48-1.07,2.17c-0.1,0.12-0.19,0.24-0.31,0.36
						c-2.36,2.89-6.61,3.46-9.69,1.22c-3.1-2.24-3.87-6.47-1.84-9.62"/>
					<path class="st2" d="M78,57.05c-0.26,3.75-3.34,6.66-7.14,6.66s-6.9-2.94-7.14-6.68"/>
					<path class="st2" d="M74.04,44.06l3.58,10.1c0.26,0.74,0.41,1.55,0.41,2.39c0,0.17,0,0.31-0.02,0.48"/>
					<line class="st2" x1="78" y1="57.05" x2="78" y2="57.02"/>
					<path class="st2" d="M89.56,48.64c2,3.15,1.24,7.35-1.86,9.6c-3.06,2.24-7.3,1.67-9.69-1.19c-0.02,0-0.02,0-0.02,0"/>
					<path class="st2" d="M78.72,40.48l8.83,6.06c0.64,0.45,1.24,1.03,1.74,1.69c0.1,0.12,0.17,0.24,0.24,0.38"/>
					<path class="st2" d="M80.41,34.82l10.72-0.29c0.76-0.02,1.58,0.1,2.39,0.36c0.14,0.05,0.26,0.1,0.41,0.17
						c3.51,1.34,5.37,5.23,4.18,8.86c-1.17,3.63-4.92,5.66-8.55,4.73h-0.02v-0.02"/>
					<path class="st2" d="M78.46,29.26l8.5-6.52c0.62-0.48,1.34-0.86,2.12-1.12c0.14-0.05,0.29-0.1,0.43-0.1
						c3.65-0.98,7.42,1.05,8.59,4.68c1.19,3.63-0.67,7.52-4.18,8.86"/>
					<path class="st2" d="M73.59,25.92l3.03-10.29c0.24-0.74,0.6-1.48,1.07-2.17c0.1-0.12,0.19-0.24,0.31-0.36
						c2.36-2.89,6.61-3.44,9.69-1.22c3.1,2.24,3.87,6.49,1.81,9.64"/>
					<polyline class="st2" points="70.87,63.71 70.87,104.43 70.87,135.31 					"/>
					<path class="st2" d="M107.34,70.17c-1,2.08-4.54,11.41-2.84,17.28c0.79,2.86,2.82,4.89,6.95,4.89s6.16-2.03,6.95-4.89
						c1.69-5.87-1.84-15.2-2.84-17.28"/>
					<path class="st2" d="M34.39,70.17c1,2.08,4.54,11.41,2.84,17.28c-0.79,2.86-2.82,4.89-6.95,4.89s-6.16-2.03-6.95-4.89
						c-1.69-5.87,1.84-15.2,2.84-17.28"/>
					<path class="st2" d="M118.41,87.45c0,0,1.55,2.51,4.96,2.51c2.41,0,4.44-2.27,4.73-6.16c0.02-0.31,0.05-0.64,0.05-1
						c0-9.14-8.5-14.97-8.5-14.97"/>
					<path class="st2" d="M23.32,87.45c0,0-1.55,2.51-4.96,2.51c-2.41,0-4.44-2.27-4.73-6.16c-0.02-0.31-0.05-0.64-0.05-1
						c0-9.14,8.5-14.97,8.5-14.97"/>
					<path class="st2" d="M104.47,87.45c0,0-1.55,2.51-4.96,2.51c-2.41,0-4.44-2.27-4.73-6.16c-0.02-0.31-0.05-0.64-0.05-1
						c0-9.14,8.5-14.97,8.5-14.97"/>
					<path class="st2" d="M37.26,87.45c0,0,1.55,2.51,4.96,2.51c2.41,0,4.44-2.27,4.73-6.16c0.02-0.31,0.05-0.64,0.05-1
						c0-9.14-8.5-14.97-8.5-14.97"/>
					<path class="st2" d="M120.8,64.45c0,0,14.51,5.23,14.51,15.18c0,4.27-2.84,5.56-3.99,5.56c-2.27,0-3.17-1.38-3.17-1.38"/>
					<path class="st2" d="M20.93,64.45c0,0-14.51,5.23-14.51,15.18c0,4.27,2.84,5.56,3.99,5.56c2.27,0,3.17-1.38,3.17-1.38"/>
					<path class="st2" d="M102.09,64.45c0,0-14.51,5.23-14.51,15.18c0,4.27,2.84,5.56,3.99,5.56c2.27,0,3.17-1.38,3.17-1.38"/>
					<path class="st2" d="M39.65,64.45c0,0,14.51,5.23,14.51,15.18c0,4.27-2.84,5.56-3.99,5.56C47.9,85.19,47,83.8,47,83.8"/>
					<path class="st2" d="M96.12,131.61c4.03,0.69,7.92,1.65,11.43,2.41c3.34,0.74,6.3,1.29,8.66,1.29c11.84,0,19.1-8.35,19.1-16.71
						"/>
					<path class="st2" d="M45.66,131.61c8.76-1.5,18.12-1.81,25.21,3.7c7.09-5.51,16.45-5.2,25.21-3.7"/>
					<path class="st2" d="M6.42,118.6c0,8.35,7.26,16.71,19.1,16.71c2.36,0,5.32-0.55,8.66-1.29c3.51-0.76,7.4-1.72,11.43-2.41"/>
					<path class="st2" d="M125.76,118.6c0,5.37-7.61,15.42-18.21,15.42"/>
					<path class="st2" d="M15.97,118.6c0,5.37,7.61,15.42,18.21,15.42"/>
					<path class="st2" d="M113.83,120.99c0,5.97-8.78,10.6-17.71,10.62c-0.02,0-0.02,0-0.05,0"/>
					<path class="st2" d="M27.9,120.99c0,5.97,8.78,10.6,17.71,10.62c0.02,0,0.02,0,0.05,0"/>
					<path class="st2" d="M111.44,92.35c0,7.02-3.48,16.42-8.35,24.13c-4.99,7.92-11.41,14.06-16.99,14.06"/>
					<path class="st2" d="M30.29,92.35c0,7.02,3.48,16.42,8.35,24.13c4.99,7.92,11.41,14.06,16.99,14.06"/>
					<path class="st2" d="M135.31,96.98c0,10.34-9.69,13.08-18.64,14.99c-5.75,1.24-11.22,2.15-13.58,4.51"/>
					<path class="st2" d="M6.42,96.98c0,10.34,9.69,13.08,18.64,14.99c5.75,1.24,11.22,2.15,13.58,4.51"/>
					<path class="st2" d="M125.76,99.51c0,8.16-7.73,11.15-9.09,12.46l-0.02,0.02"/>
					<path class="st2" d="M15.97,99.51c0,8.16,7.73,11.15,9.09,12.46l0.02,0.02"/>
					<path class="st2" d="M80.41,85.19c-2.1,2.1-9.55,15.37-9.55,19.24c0-3.87-7.45-17.14-9.55-19.24"/>
					<path class="st2" d="M92.49,99.51c0,9.02-3.96,16.52-8.66,22.51c-4.63,5.92-10,10.34-12.96,13.29
						c-2.96-2.96-8.33-7.38-12.96-13.29c-4.7-5.99-8.66-13.49-8.66-22.51"/>
					<path class="st2" d="M80.41,104.28c3.94,3.94,6.25,12.89,3.41,17.73c-0.29,0.5-0.62,0.95-1.03,1.36"/>
					<path class="st2" d="M61.32,104.28c-3.94,3.94-6.25,12.89-3.41,17.73c0.29,0.5,0.62,0.95,1.03,1.36"/>
				</g>
			</g>
		</g>
	</g>
</g>
</svg>
