<?xml version="1.0" encoding="utf-8"?>
<!-- Generator: Adobe Illustrator 25.3.1, SVG Export Plug-In . SVG Version: 6.00 Build 0)  -->
<svg version="1.1" id="Layer_1" xmlns="http://www.w3.org/2000/svg" xmlns:xlink="http://www.w3.org/1999/xlink" x="0px" y="0px"
	 viewBox="0 0 141.73 141.73" style="enable-background:new 0 0 141.73 141.73;" xml:space="preserve">
<style type="text/css">
	.st0{fill:#ACD084;}
	.st1{fill:none;stroke:#000000;stroke-width:0.4;stroke-linecap:round;stroke-linejoin:round;stroke-miterlimit:10;}
	.st2{fill:#ECD8B3;}
</style>
<g>
	<path class="st0" d="M56.95,46.61c-3.05,3.52-8.09,4.71-12.4,2.64c-2.07-4.31-0.87-9.35,2.64-12.4c0.43-0.38,0.89-0.71,1.38-1.02
		c0.07,1.46,0.48,2.85,1.34,4.03c1.91-2.56,4.86-4.03,8.05-4.03c0,3.19-1.46,6.15-4.03,8.05c1.18,0.86,2.56,1.28,4.03,1.34
		C57.66,45.72,57.32,46.18,56.95,46.61z"/>
	<path class="st0" d="M47.23,23.75c0.95,1.15,2.54,1.57,4.03,1.34c0.11-2.83,1.53-5.32,4.03-6.71c0.43,1.33,1.37,2.19,2.68,2.68
		c0.16-3.13,2.35-5.76,5.37-6.71c0.07,1.03,0.5,2.07,1.34,2.68c1.87-2.51,4.9-4.03,8.05-4.03c-0.5,0.85-0.5,1.84,0,2.68
		c2.31-1.77,5.13-2.68,8.05-2.68c0,2.93-0.91,5.74-2.68,8.05c0.85,0.5,1.84,0.5,2.68,0c0,3.15-1.52,6.19-4.03,8.05
		c0.62,0.85,1.65,1.28,2.68,1.34c-0.95,3.02-3.58,5.21-6.71,5.37c0.51,1.32,1.36,2.25,2.68,2.68c-1.4,2.5-3.87,3.92-6.71,4.03
		c-0.23,1.49,0.19,3.07,1.34,4.03c-2.44,0.82-4.94,1.23-7.44,1.23c-1.8-0.7-3.7-1.1-5.66-1.19c0.38-0.43,0.71-0.89,1.02-1.38
		c-1.46-0.07-2.85-0.48-4.03-1.34c2.56-1.91,4.03-4.86,4.03-8.05c-3.19,0-6.15,1.46-8.05,4.03c-0.86-1.18-1.28-2.56-1.34-4.03
		c-0.5,0.31-0.95,0.64-1.38,1.02c-0.09-1.96-0.5-3.87-1.19-5.66C46,28.69,46.41,26.19,47.23,23.75z"/>
	<path class="st0" d="M53.94,78.78c-3.02-2.32-4.95-5.61-5.37-9.4c-1.26,0.56-2.23,1.38-2.68,2.68c-1.19-1.45-2.13-3.05-2.79-4.75
		c-0.7-1.8-1.1-3.7-1.19-5.66c3.52-3.05,4.71-8.09,2.64-12.4c4.31,2.07,9.35,0.87,12.4-2.64c1.96,0.09,3.87,0.5,5.66,1.19
		c1.7,0.66,3.3,1.6,4.75,2.79c-1.3,0.46-2.12,1.42-2.68,2.68c3.78,0.42,7.07,2.35,9.4,5.37c-1.74,0.04-3.17,1.17-4.03,2.68
		c3.49,1.38,5.89,4.39,6.71,8.05c-1.53-0.35-3.05,0.12-4.03,1.34c2.64,2.95,4.03,6.78,4.03,10.74c-3.96,0-7.78-1.38-10.74-4.03
		c-1.22,0.98-1.69,2.5-1.34,4.03c-3.66-0.82-6.67-3.22-8.05-6.71C55.11,75.61,53.98,77.04,53.94,78.78z"/>
	<path class="st0" d="M32.14,51.9c3.05-3.52,8.09-4.71,12.4-2.64c2.07,4.31,0.87,9.35-2.64,12.4c-0.43,0.38-0.89,0.71-1.38,1.02
		c-0.07-1.46-0.48-2.85-1.34-4.03c-1.91,2.56-4.86,4.03-8.05,4.03c0-3.19,1.46-6.15,4.03-8.05c-1.18-0.86-2.56-1.28-4.03-1.34
		C31.43,52.78,31.77,52.33,32.14,51.9z"/>
	<path class="st0" d="M35.15,19.72c3.02,2.32,4.95,5.61,5.37,9.4c1.26-0.56,2.23-1.38,2.68-2.68c1.19,1.45,2.13,3.05,2.79,4.75
		c0.7,1.8,1.1,3.7,1.19,5.66c-3.52,3.05-4.71,8.09-2.64,12.4c-4.31-2.07-9.35-0.87-12.4,2.64c-1.96-0.09-3.87-0.5-5.66-1.19
		c-1.7-0.66-3.3-1.6-4.75-2.79c1.3-0.46,2.12-1.42,2.68-2.68c-3.78-0.42-7.07-2.35-9.4-5.37c1.74-0.04,3.17-1.17,4.03-2.68
		c-3.49-1.38-5.89-4.39-6.71-8.05c1.53,0.35,3.05-0.12,4.03-1.34c-2.64-2.95-4.03-6.78-4.03-10.74c3.96,0,7.78,1.38,10.74,4.03
		c1.22-0.98,1.69-2.5,1.34-4.03c3.66,0.82,6.68,3.22,8.05,6.71C33.98,22.89,35.11,21.47,35.15,19.72z"/>
	<path class="st0" d="M37.84,73.41c-0.11,2.83-1.53,5.32-4.03,6.71c-0.43-1.33-1.36-2.19-2.68-2.68c-0.16,3.13-2.35,5.76-5.37,6.71
		c-0.07-1.03-0.5-2.07-1.34-2.68c-1.87,2.51-4.9,4.03-8.05,4.03c0.5-0.85,0.5-1.84,0-2.68c-2.3,1.77-5.13,2.68-8.05,2.68
		c0-2.93,0.91-5.74,2.68-8.05c-0.85-0.5-1.84-0.5-2.68,0c0-3.15,1.52-6.19,4.03-8.05c-0.62-0.85-1.65-1.28-2.68-1.34
		c0.95-3.02,3.58-5.21,6.71-5.37c-0.5-1.32-1.34-2.25-2.68-2.68c1.4-2.5,3.88-3.92,6.71-4.03c0.23-1.49-0.19-3.07-1.34-4.03
		c2.44-0.82,4.94-1.23,7.44-1.23c1.8,0.7,3.7,1.1,5.66,1.19c-0.38,0.43-0.71,0.89-1.02,1.38c1.46,0.07,2.85,0.48,4.03,1.34
		c-2.56,1.91-4.03,4.86-4.03,8.05c3.19,0,6.15-1.46,8.05-4.03c0.86,1.18,1.28,2.56,1.34,4.03c0.5-0.31,0.95-0.64,1.38-1.02
		c0.09,1.96,0.5,3.87,1.19,5.66c0,2.5-0.42,4.99-1.23,7.44C40.91,73.6,39.33,73.18,37.84,73.41z"/>
	<path class="st1" d="M46,31.19c0-2.5,0.42-4.99,1.23-7.44c0.95,1.15,2.54,1.57,4.03,1.34c0.11-2.83,1.53-5.32,4.03-6.71
		c0.43,1.33,1.37,2.19,2.68,2.68c0.16-3.13,2.35-5.76,5.37-6.71c0.07,1.03,0.5,2.07,1.34,2.68c1.87-2.51,4.9-4.03,8.05-4.03
		c-0.5,0.85-0.5,1.84,0,2.68c2.31-1.77,5.13-2.68,8.05-2.68c0,2.93-0.91,5.74-2.68,8.05c0.85,0.5,1.84,0.5,2.68,0
		c0,3.15-1.52,6.19-4.03,8.05c0.62,0.85,1.65,1.28,2.68,1.34c-0.95,3.02-3.58,5.21-6.71,5.37c0.51,1.32,1.36,2.25,2.68,2.68
		c-1.4,2.5-3.87,3.92-6.71,4.03c-0.23,1.49,0.19,3.07,1.34,4.03c-2.44,0.82-4.94,1.23-7.44,1.23"/>
	<path class="st1" d="M26.48,50.7c-2.5,0-4.99,0.42-7.44,1.23c1.15,0.95,1.57,2.54,1.34,4.03c-2.83,0.11-5.32,1.53-6.71,4.03
		c1.34,0.43,2.19,1.37,2.68,2.68c-3.13,0.16-5.76,2.35-6.71,5.37c1.03,0.07,2.07,0.5,2.68,1.34c-2.51,1.87-4.03,4.9-4.03,8.05
		c0.85-0.5,1.84-0.5,2.68,0c-1.77,2.31-2.68,5.13-2.68,8.05c2.93,0,5.76-0.91,8.05-2.68c0.5,0.85,0.5,1.84,0,2.68
		c3.15,0,6.19-1.52,8.05-4.03c0.85,0.62,1.28,1.65,1.34,2.68c3.02-0.95,5.21-3.58,5.37-6.71c1.33,0.5,2.25,1.36,2.68,2.68
		c2.5-1.4,3.92-3.88,4.03-6.71c1.49-0.23,3.07,0.19,4.03,1.34c0.82-2.44,1.23-4.94,1.23-7.44"/>
	<path class="st1" d="M47.19,36.85c-0.09-1.96-0.5-3.87-1.19-5.66c-0.66-1.7-1.6-3.3-2.79-4.75c-0.46,1.3-1.42,2.12-2.68,2.68
		c-0.42-3.78-2.35-7.07-5.37-9.4c-0.04,1.74-1.17,3.17-2.68,4.03c-1.37-3.49-4.39-5.89-8.05-6.71c0.35,1.53-0.12,3.05-1.34,4.03
		c-2.95-2.64-6.78-4.03-10.74-4.03c0,3.96,1.38,7.78,4.03,10.74c-0.98,1.22-2.5,1.69-4.03,1.34c0.82,3.66,3.22,6.67,6.71,8.05
		c-0.86,1.52-2.28,2.64-4.03,2.68c2.32,3.02,5.61,4.95,9.4,5.37c-0.56,1.26-1.38,2.23-2.68,2.68c1.45,1.19,3.05,2.13,4.75,2.79
		c1.8,0.7,3.7,1.1,5.66,1.19"/>
	<path class="st1" d="M56.95,46.61c1.96,0.09,3.87,0.5,5.66,1.19c1.7,0.66,3.3,1.6,4.75,2.79c-1.3,0.46-2.12,1.42-2.68,2.68
		c3.78,0.42,7.07,2.35,9.4,5.37c-1.74,0.04-3.17,1.17-4.03,2.68c3.49,1.38,5.89,4.39,6.71,8.05c-1.53-0.35-3.05,0.12-4.03,1.34
		c2.64,2.95,4.03,6.78,4.03,10.74c-3.96,0-7.78-1.38-10.74-4.03c-1.22,0.98-1.69,2.5-1.34,4.03c-3.66-0.82-6.67-3.22-8.05-6.71
		c-1.52,0.86-2.64,2.28-2.68,4.03c-3.02-2.32-4.95-5.61-5.37-9.4c-1.26,0.56-2.23,1.38-2.68,2.68c-1.19-1.45-2.13-3.05-2.79-4.75
		c-0.7-1.8-1.1-3.7-1.19-5.66"/>
	<path class="st1" d="M44.55,49.25c-2.07-4.31-0.87-9.35,2.64-12.4c0.43-0.38,0.89-0.71,1.38-1.02c0.07,1.46,0.48,2.85,1.34,4.03
		c1.91-2.56,4.86-4.03,8.05-4.03c0,3.19-1.46,6.15-4.03,8.05c1.18,0.86,2.56,1.28,4.03,1.34c-0.31,0.5-0.64,0.95-1.02,1.38
		C53.9,50.12,48.85,51.32,44.55,49.25z"/>
	<path class="st1" d="M44.55,49.25c-4.31-2.07-9.35-0.87-12.4,2.64c-0.38,0.43-0.71,0.89-1.02,1.38c1.46,0.07,2.85,0.48,4.03,1.34
		c-2.56,1.91-4.03,4.86-4.03,8.05c3.19,0,6.15-1.46,8.05-4.03c0.86,1.18,1.28,2.56,1.34,4.03c0.5-0.31,0.95-0.64,1.38-1.02
		C45.42,58.61,46.61,53.56,44.55,49.25z"/>
	<polyline class="st1" points="20.39,25.09 28.44,33.15 35.15,39.86 39.18,43.88 	"/>
	<polyline class="st1" points="68.71,73.41 60.65,65.36 53.94,58.65 49.92,54.62 	"/>
	<polyline class="st1" points="28.44,26.44 28.44,33.15 21.73,33.15 	"/>
	<polyline class="st1" points="67.36,65.36 60.65,65.36 60.65,72.07 	"/>
	<polyline class="st1" points="35.15,30.46 35.15,39.86 25.76,39.86 	"/>
	<polyline class="st1" points="63.34,58.65 53.94,58.65 53.94,68.04 	"/>
	<polyline class="st1" points="60.65,33.15 61.99,31.8 68.71,25.09 74.07,19.72 	"/>
	<polyline class="st1" points="28.44,65.36 27.1,66.7 20.39,73.41 15.02,78.78 	"/>
	<polyline class="st1" points="68.71,19.72 68.71,25.09 74.07,25.09 	"/>
	<polyline class="st1" points="15.02,73.41 20.39,73.41 20.39,78.78 	"/>
	<polyline class="st1" points="61.99,23.75 61.99,31.8 70.05,31.8 	"/>
	<polyline class="st1" points="19.05,66.7 27.1,66.7 27.1,74.75 	"/>
	<line class="st1" x1="55.28" y1="26.44" x2="55.28" y2="31.8"/>
	<line class="st1" x1="21.73" y1="59.99" x2="27.1" y2="59.99"/>
	<line class="st1" x1="67.36" y1="38.51" x2="61.99" y2="38.51"/>
	<line class="st1" x1="33.81" y1="72.07" x2="33.81" y2="66.7"/>
</g>
<g>
	<g id="XMLID_10_">
		<g>
			<g id="XMLID_30_">
				<g>
					<path class="st2" d="M91.12,78.82c0-5.13,5.35-7.69,7.79-7.69c2.33,0,5.06,0.14,7.86,0.42c-0.82-1.21-1.55-2.99-1.55-5.55
						c0-2.88,3.32-3.85,5.13-3.85c4.99,0,6.19,6.14,6.37,11.18c3.24,0.9,5.85,2.09,7.03,3.62c3.69,0,9.68,5.18,9.68,14.69
						c0,5.36-3.26,8.82-6.1,10.82c-2.21,1.54-4.17,2.22-4.17,2.22c-0.14,9.73-1.74,19.01-8.96,19.01c-7.41,0-7.68-6.94-7.69-10.04
						h-0.1c0,0-7.28,5.14-15.28,9.88c-6.85,4.06-14.21,7.85-17.95,7.85c-1.59,0-2.95-0.41-4.08-1.09c-3.45-2.08-4.9-6.71-4.9-10.23
						c0-5.35,11.77-11.96,11.77-11.96c-5.96-1.51-5.35-11.33,1.64-11.33c1.78,0,3.55,0.44,5.21,1.1c1.18,0.47,2.29,1.06,3.33,1.71
						h0.01c0.26-0.15,3.24-1.82,6.87-3.88c0,0,0,0,0.01,0c3.78-2.15,8.27-4.74,11.12-6.49C97.63,87.84,91.12,84.91,91.12,78.82z"/>
				</g>
				<g>
					<path class="st1" d="M75.96,108.1c0,0-11.77,6.62-11.77,11.96c0,3.53,1.45,8.15,4.9,10.23c1.13,0.68,2.49,1.09,4.08,1.09
						c3.74,0,11.1-3.78,17.95-7.85c8-4.74,15.28-9.88,15.28-9.88"/>
					<path class="st1" d="M112.91,105.75c0,0-6.41,2.14-6.41,7.69c0,0.06,0,0.14,0,0.22c0.01,3.1,0.28,10.04,7.69,10.04
						c7.22,0,8.82-9.28,8.96-19.01c0.01-0.5,0.01-1,0.01-1.5"/>
					<path class="st1" d="M104.17,89.21c2.03,0.44,4.05,0.71,5.88,0.87c2.21,0.22,4.12,0.28,5.42,0.28"/>
					<path class="st1" d="M106.77,71.55c-2.79-0.28-5.53-0.42-7.86-0.42c-2.45,0-7.79,2.56-7.79,7.69c0,6.09,6.51,9.01,13.04,10.38"
						/>
					<path class="st1" d="M116.72,73.34c3.24,0.9,5.85,2.09,7.03,3.62c0.46,0.58,0.71,1.19,0.71,1.87c0,5.77-2.56,7.69-2.56,7.69"/>
					<path class="st1" d="M109.07,73.69c0,0-1.22-0.58-2.29-2.14c-0.82-1.21-1.55-2.99-1.55-5.55c0-2.88,3.32-3.85,5.13-3.85
						c4.99,0,6.19,6.14,6.37,11.18c0.03,0.56,0.04,1.12,0.04,1.64"/>
					<path class="st1" d="M123.16,104.68c0,0,1.96-0.68,4.17-2.22c2.85-2,6.1-5.46,6.1-10.82c0-9.51-5.99-14.69-9.68-14.69"/>
					<path class="st1" d="M93.04,95.69c3.78-2.15,8.27-4.74,11.12-6.49h0.01"/>
					<path class="st1" d="M86.16,99.58c0.26-0.15,3.24-1.82,6.87-3.88"/>
					<path class="st1" d="M103.94,77.54c0,0,0.86,5.23-1.28,6.41"/>
					<path class="st1" d="M128.3,91.64c0,0,0.49,5.79-0.97,10.82"/>
					<path class="st1" d="M102.66,105.75c0,0,1.45,2.36-1.28,6.41"/>
					<path class="st1" d="M79.5,102.05c0,0,2.45-0.67,3.31-4.18"/>
					<path class="st1" d="M71.89,121.28c0,0,4.27,5.76-2.79,9.01"/>
					<path class="st1" d="M93.68,113.44c0,0,0.96,5.31-2.56,10.1"/>
					<path class="st1" d="M87.27,110.87c0,0,5.13-1.92,5.13-6.27c0,0-2.56-2.78-6.24-5.03h-0.01c-1.04-0.64-2.15-1.23-3.33-1.71
						c-1.65-0.67-3.42-1.1-5.21-1.1c-6.99,0-7.6,9.82-1.64,11.33c0.5,0.14,1.05,0.21,1.64,0.21"/>
					<path class="st1" d="M93.03,95.69c0,0,0,0,0.01,0c0.35,0.06,6.74,1.23,6.97,3.88"/>
					<path class="st1" d="M114.12,85.31c0,0-0.64,3.6-4.06,4.77c-0.01,0.01-0.01,0.01-0.03,0.01"/>
				</g>
			</g>
		</g>
	</g>
</g>
</svg>
