<?xml version="1.0" encoding="utf-8"?>
<!-- Generator: Adobe Illustrator 25.3.1, SVG Export Plug-In . SVG Version: 6.00 Build 0)  -->
<svg version="1.1" id="Layer_1" xmlns="http://www.w3.org/2000/svg" xmlns:xlink="http://www.w3.org/1999/xlink" x="0px" y="0px"
	 viewBox="0 0 141.7 141.7" style="enable-background:new 0 0 141.7 141.7;" xml:space="preserve">
<style type="text/css">
	.st0{fill:#FFFFFF;stroke:#221E20;stroke-width:0.5;stroke-miterlimit:10;}
	.st1{fill:none;stroke:#221E20;stroke-width:0.5;stroke-miterlimit:10;}
	.st2{fill:#CFD1D2;}
</style>
<g>
	<path class="st0" d="M89,80.7c1.6,1,3.4,1.6,5.4,1.6c5.6,0,10.1-4.5,10.1-10.1s-4.5-10.1-10.1-10.1c-1.9,0-3.6,0.5-5.1,1.4"/>
	<path class="st0" d="M71.4,98.5h-8.3c-9.9,0-17.9-8-17.9-17.9V57.5c0-1.7,1.4-3.1,3.1-3.1h37.9c1.7,0,3.1,1.4,3.1,3.1v23.1
		C89.2,90.5,81.2,98.5,71.4,98.5z"/>
	<path class="st1" d="M71,94.5c7.3,0,13.2-5.9,13.2-13.2"/>
	<path class="st0" d="M89.9,105.8H44.5c-4.1,0-7.3-3.3-7.3-7.3v0h60v0C97.2,102.5,93.9,105.8,89.9,105.8z"/>
	<g>
		<path class="st1" d="M60.9,35.9c-5.8,5.8,6.1,9.8,0,15.8"/>
		<path class="st1" d="M67.1,35.9c-5.8,5.8,6.1,9.8,0,15.8"/>
		<path class="st1" d="M73.4,35.9c-5.8,5.8,6.1,9.8,0,15.8"/>
	</g>
	<line class="st1" x1="41.4" y1="101.3" x2="61" y2="101.3"/>
	<line class="st1" x1="48.5" y1="59" x2="48.5" y2="79.7"/>
	<g>
		<rect x="65.9" y="60.1" class="st2" width="2.6" height="2.6"/>
		<path class="st2" d="M71.2,78v-2.6c-1.5-0.2-2.7-1.4-2.7-3v-4.6h3.2v-2.6h-9v2.6h3.2v4.6C65.9,75.4,68.3,77.9,71.2,78z"/>
		<g>
			<path class="st2" d="M65.3,74.3c-0.5,0.7-1.2,1.1-2.1,1.2V78c1.3-0.1,2.5-0.6,3.4-1.4C66,75.9,65.6,75.1,65.3,74.3z"/>
		</g>
	</g>
</g>
</svg>
