<svg id="Layer_1" data-name="Layer 1" xmlns="http://www.w3.org/2000/svg" viewBox="0 0 400 160"><defs><style>.cls-1{fill:#00b178;}</style></defs><path class="cls-1" d="M297.26,68.48h-1.91v4.93h-1.09V68.48h-1.91v-1h4.91Z"/><path class="cls-1" d="M304.65,67.53v5.88h-1.08v-5l-1.75,5h-1.31l-1.73-5v5h-1V67.53h1.77l1.69,4.87,1.71-4.87Z"/><polygon class="cls-1" points="63.78 59.02 30.98 59.02 30.98 64.68 44.35 64.68 44.35 98.64 50.42 98.64 50.42 64.68 63.78 64.68 63.78 59.02"/><path class="cls-1" d="M82.16,71.55a12.92,12.92,0,0,0-4.53-3.22,15.08,15.08,0,0,0-5.94-1.13,16.58,16.58,0,0,0-4.19.52,14.47,14.47,0,0,0-3.63,1.51,13.15,13.15,0,0,0-3,2.4,14.33,14.33,0,0,0-2.22,3.21,17.23,17.23,0,0,0-1.39,3.91,20.49,20.49,0,0,0-.49,4.53,20.74,20.74,0,0,0,.49,4.55,16.28,16.28,0,0,0,1.41,3.94A14.18,14.18,0,0,0,61,95a13.45,13.45,0,0,0,3,2.42,14.34,14.34,0,0,0,3.66,1.52,16.5,16.5,0,0,0,4.23.53,16.07,16.07,0,0,0,5-.75A13.35,13.35,0,0,0,81,96.54a12.94,12.94,0,0,0,3.07-3.46,15.37,15.37,0,0,0,1.86-4.61l0-.18H80.11l0,.09A9.13,9.13,0,0,1,77,92.69a8.29,8.29,0,0,1-5,1.44,9.94,9.94,0,0,1-3.53-.6,8.13,8.13,0,0,1-2.77-1.74A8.91,8.91,0,0,1,63.77,89a12.55,12.55,0,0,1-1-3.52H86v-.14c0-.41,0-.79.07-1.13s0-.7,0-1a20.52,20.52,0,0,0-1-6.61A14.44,14.44,0,0,0,82.16,71.55ZM62.93,80.4a11.92,11.92,0,0,1,1-3.22,8.41,8.41,0,0,1,1.87-2.52,7.61,7.61,0,0,1,2.61-1.58,9.55,9.55,0,0,1,3.27-.55,9,9,0,0,1,3.16.53,7.21,7.21,0,0,1,2.46,1.54,8,8,0,0,1,1.72,2.51A12.34,12.34,0,0,1,80,80.4Z"/><path class="cls-1" d="M114.41,70.73a12.87,12.87,0,0,0-4.58-2.62A20.89,20.89,0,0,0,98,68a13,13,0,0,0-4.4,2.3A10.21,10.21,0,0,0,90.77,74a11.48,11.48,0,0,0-1,4.77v.15h5.87v-.15a6.68,6.68,0,0,1,.47-2.54,5.16,5.16,0,0,1,1.44-1.94A7,7,0,0,1,100.06,73a13.05,13.05,0,0,1,3.59-.44,11.32,11.32,0,0,1,3.67.55,7.77,7.77,0,0,1,2.75,1.59,7,7,0,0,1,1.74,2.5,8.58,8.58,0,0,1,.61,3.32v.55H100.88a18.52,18.52,0,0,0-5,.62,11.35,11.35,0,0,0-3.78,1.81,8,8,0,0,0-2.39,2.87,8.63,8.63,0,0,0-.83,3.81,9,9,0,0,0,.8,3.81A8.34,8.34,0,0,0,92,96.91a10.54,10.54,0,0,0,3.53,1.88,14.67,14.67,0,0,0,4.57.67,15.72,15.72,0,0,0,4.49-.62A12.33,12.33,0,0,0,108.27,97,11.21,11.21,0,0,0,111,94.17a12.14,12.14,0,0,0,1.39-2.82v7.29h5.87V80.51a14.73,14.73,0,0,0-1-5.59A11.34,11.34,0,0,0,114.41,70.73Zm-2,15.3v.69a6,6,0,0,1-.79,3,7.43,7.43,0,0,1-2.22,2.4A11,11,0,0,1,106,93.74a15.87,15.87,0,0,1-4.39.57,13.87,13.87,0,0,1-3-.29,6.91,6.91,0,0,1-2.16-.85,3.8,3.8,0,0,1-1.3-1.35A3.69,3.69,0,0,1,94.7,90a3.26,3.26,0,0,1,1.52-2.93,8.45,8.45,0,0,1,4.6-1Z"/><path class="cls-1" d="M138,59h-5.86v9h-6.45v5h6.45V88.45a16.53,16.53,0,0,0,.61,4.74,9.32,9.32,0,0,0,1.83,3.45,7.56,7.56,0,0,0,3,2.1,10.9,10.9,0,0,0,4.06.71,22.5,22.5,0,0,0,6.31-1l.11,0V93.25l-.19,0c-1.17.31-2.2.54-3.05.68a13.27,13.27,0,0,1-2.25.22,4.18,4.18,0,0,1-3.45-1.38,7,7,0,0,1-1.1-4.35V73h10V68H138Z"/><path class="cls-1" d="M170.26,68h-1.52a13.72,13.72,0,0,0-4.39.66,10.65,10.65,0,0,0-3.46,1.94,11.49,11.49,0,0,0-2.5,3.08,14.56,14.56,0,0,0-1.24,3V68h-5.87V98.64h5.87V83.46a14.9,14.9,0,0,1,.58-4.36,6.87,6.87,0,0,1,1.92-3,8.67,8.67,0,0,1,3.56-1.81,21.7,21.7,0,0,1,5.54-.61h1.51Z"/><path class="cls-1" d="M197.87,74.86a14.36,14.36,0,0,0-2.24-3.22,13.3,13.3,0,0,0-3-2.41A14.54,14.54,0,0,0,189,67.72a17.38,17.38,0,0,0-8.44,0,14.25,14.25,0,0,0-3.65,1.51,13.53,13.53,0,0,0-3,2.41,14.7,14.7,0,0,0-2.24,3.22,17.65,17.65,0,0,0-1.4,3.92,21.76,21.76,0,0,0,0,9.09,17.92,17.92,0,0,0,1.4,3.93A14.17,14.17,0,0,0,173.94,95a13.57,13.57,0,0,0,3,2.42,13.9,13.9,0,0,0,3.65,1.51,17.38,17.38,0,0,0,8.44,0,13.83,13.83,0,0,0,3.64-1.51,13.34,13.34,0,0,0,3-2.42,13.86,13.86,0,0,0,2.24-3.21,16.78,16.78,0,0,0,1.4-3.93,21.76,21.76,0,0,0,0-9.09A16.54,16.54,0,0,0,197.87,74.86Zm-4,8.46a15.07,15.07,0,0,1-.63,4.53,9.86,9.86,0,0,1-1.81,3.4,8,8,0,0,1-2.85,2.14,10.13,10.13,0,0,1-7.6,0,8.1,8.1,0,0,1-2.87-2.14,9.86,9.86,0,0,1-1.81-3.4,16.53,16.53,0,0,1,0-9,9.86,9.86,0,0,1,1.81-3.4A8,8,0,0,1,181,73.28a10,10,0,0,1,7.6,0,7.78,7.78,0,0,1,2.85,2.13,9.72,9.72,0,0,1,1.81,3.39A15.05,15.05,0,0,1,193.89,83.32Z"/><path class="cls-1" d="M229.53,74.86a14.36,14.36,0,0,0-2.24-3.22,13.25,13.25,0,0,0-3-2.41,14.33,14.33,0,0,0-3.64-1.51,17.38,17.38,0,0,0-8.44,0,14.1,14.1,0,0,0-3.65,1.51,13.3,13.3,0,0,0-3,2.41,14.36,14.36,0,0,0-2.24,3.22,16.7,16.7,0,0,0-1.4,3.92,21.76,21.76,0,0,0,0,9.09,16.94,16.94,0,0,0,1.4,3.93A13.65,13.65,0,0,0,205.6,95a13.34,13.34,0,0,0,3,2.42,13.76,13.76,0,0,0,3.65,1.51,17.38,17.38,0,0,0,8.44,0,14,14,0,0,0,3.64-1.51,13.57,13.57,0,0,0,3-2.42,14.4,14.4,0,0,0,2.24-3.21,17.24,17.24,0,0,0,1.4-3.93,21.76,21.76,0,0,0,0-9.09A17.47,17.47,0,0,0,229.53,74.86Zm-4,8.46a15.07,15.07,0,0,1-.63,4.53,9.94,9.94,0,0,1-1.8,3.4,8,8,0,0,1-2.86,2.14,10.1,10.1,0,0,1-7.59,0,8,8,0,0,1-2.87-2.14,9.71,9.71,0,0,1-1.82-3.4,16.53,16.53,0,0,1,0-9,9.71,9.71,0,0,1,1.82-3.4,7.87,7.87,0,0,1,2.87-2.13,10,10,0,0,1,7.59,0,7.73,7.73,0,0,1,2.86,2.13,9.71,9.71,0,0,1,1.8,3.39A15.05,15.05,0,0,1,225.54,83.32Z"/><path class="cls-1" d="M261.33,75a14.49,14.49,0,0,0-2-3.23,13.11,13.11,0,0,0-2.6-2.46,12.12,12.12,0,0,0-3.14-1.56,11.84,11.84,0,0,0-3.6-.54,10.67,10.67,0,0,0-3.92.73A10.81,10.81,0,0,0,242.82,70a13.3,13.3,0,0,0-2.52,3.24,17.5,17.5,0,0,0-1.36,3.21V68h-5.87v41h5.87V90.21a17.21,17.21,0,0,0,1.36,3.21,13.07,13.07,0,0,0,2.52,3.25,10.94,10.94,0,0,0,3.29,2.07,10.66,10.66,0,0,0,3.92.72,11.49,11.49,0,0,0,6.74-2.1,13.11,13.11,0,0,0,2.6-2.46,14.49,14.49,0,0,0,2-3.23,18.36,18.36,0,0,0,1.24-3.9,22.67,22.67,0,0,0,0-8.89A18.85,18.85,0,0,0,261.33,75Zm-4.19,8.33a17.28,17.28,0,0,1-.59,4.73,9.42,9.42,0,0,1-1.73,3.42A7.3,7.3,0,0,1,252,93.56a9.93,9.93,0,0,1-3.87.71,9.49,9.49,0,0,1-3.86-.75,7.77,7.77,0,0,1-2.89-2.15,9.73,9.73,0,0,1-1.82-3.44,17.15,17.15,0,0,1,0-9.21,9.82,9.82,0,0,1,1.82-3.44,7.86,7.86,0,0,1,2.89-2.14,9.63,9.63,0,0,1,3.86-.74,9.84,9.84,0,0,1,3.88.71,7.05,7.05,0,0,1,2.8,2.08,9.29,9.29,0,0,1,1.73,3.41A17.25,17.25,0,0,1,257.14,83.32Z"/><path class="cls-1" d="M291.31,86.72a7.53,7.53,0,0,0-1.51-2.35,8.58,8.58,0,0,0-2.2-1.62A15,15,0,0,0,285,81.68a24.32,24.32,0,0,0-2.77-.68q-1.38-.25-2.67-.45l-2-.32-1.7-.28c-.58-.09-1.13-.21-1.66-.34a11.16,11.16,0,0,1-1.48-.49,4.66,4.66,0,0,1-1.19-.66,2.9,2.9,0,0,1-.79-.89,2.52,2.52,0,0,1-.28-1.19,2.82,2.82,0,0,1,.51-1.64,4.41,4.41,0,0,1,1.46-1.29,8.54,8.54,0,0,1,2.29-.84,13.64,13.64,0,0,1,3-.3,12.68,12.68,0,0,1,3.18.37,7.13,7.13,0,0,1,2.31,1,4.46,4.46,0,0,1,1.4,1.58,4.36,4.36,0,0,1,.48,2v.15h5.73v-.15a9.89,9.89,0,0,0-.87-4.2,8.83,8.83,0,0,0-2.56-3.21,12.11,12.11,0,0,0-4.12-2,20,20,0,0,0-5.55-.71,20.68,20.68,0,0,0-5.39.65,12.69,12.69,0,0,0-4.08,1.87,8.43,8.43,0,0,0-2.59,2.94,8.16,8.16,0,0,0-.9,3.85,7.37,7.37,0,0,0,.54,2.93,6.9,6.9,0,0,0,1.45,2.15,8.5,8.5,0,0,0,2.08,1.5,14.58,14.58,0,0,0,2.46,1,25,25,0,0,0,2.58.65c.85.17,1.67.32,2.45.45l2,.34,2,.35c.65.13,1.27.27,1.85.43a13.08,13.08,0,0,1,1.64.58,5.39,5.39,0,0,1,1.29.78,3.39,3.39,0,0,1,.84,1,3,3,0,0,1,.31,1.38,3.17,3.17,0,0,1-.53,1.8,4.05,4.05,0,0,1-1.54,1.33,8.4,8.4,0,0,1-2.51.83,18.42,18.42,0,0,1-3.42.29,17.35,17.35,0,0,1-3.7-.35,7.89,7.89,0,0,1-2.57-1,4.28,4.28,0,0,1-1.5-1.65,4.94,4.94,0,0,1-.5-2.25v-.15h-5.73v.15a10.57,10.57,0,0,0,.89,4.44,8.54,8.54,0,0,0,2.65,3.27,12.39,12.39,0,0,0,4.38,2,24.58,24.58,0,0,0,6.09.68,25.2,25.2,0,0,0,5.88-.62A12.87,12.87,0,0,0,288.34,97,8.19,8.19,0,0,0,291,94a9,9,0,0,0,.89-4.05A8.61,8.61,0,0,0,291.31,86.72Z"/><rect class="cls-1" x="337.34" y="31.04" width="14.1" height="14.1"/><path class="cls-1" d="M366.09,129V114.82a16.29,16.29,0,0,1-14.65-16.3V73.34H369V59.24H319.76v14.1h17.58V98.52A30.82,30.82,0,0,0,366.09,129Z"/><path class="cls-1" d="M334.11,108.33a16.3,16.3,0,0,1-11.42,6.49V129a30.29,30.29,0,0,0,18.48-7.8A35.83,35.83,0,0,1,334.11,108.33Z"/><path class="cls-1" d="M46.19,128.64h-1.7V113.38h1.7Z"/><path class="cls-1" d="M62.54,128.64H59.83l-9.39-14.12v14.12H48.78V113.38h2.94l9.15,13.73V113.38h1.67Z"/><path class="cls-1" d="M75.49,114.91h-8.7v5.56h8V122h-8v6.64H65.08V113.38H75.49Z"/><path class="cls-1" d="M77.45,113.38h1.71v8.85c0,3.37,2,5.19,4.9,5.19s4.9-1.82,4.9-5.19v-8.85h1.71v8.85c0,4.22-2.81,6.73-6.61,6.73s-6.61-2.51-6.61-6.73Z"/><path class="cls-1" d="M105.09,117.79h-1.67c0-2-1.8-3.24-4.33-3.24-2.24,0-4.35,1-4.35,2.93S96.61,119.61,99,120l.94.15c2.55.39,5.71.89,5.71,4.22,0,3-2.62,4.6-6.35,4.6-4,0-6.52-1.8-6.52-4.89h1.66c0,2.13,1.92,3.39,4.84,3.39,2.63,0,4.69-1,4.69-3.12s-1.94-2.36-4.2-2.72l-1.08-.16c-2.53-.39-5.64-.86-5.64-3.94,0-2.88,2.72-4.46,6-4.46C102.68,113.06,105.09,114.87,105.09,117.79Z"/><path class="cls-1" d="M109.5,128.64h-1.71V113.38h1.71Z"/><path class="cls-1" d="M125.84,128.64h-2.71l-9.39-14.12v14.12h-1.66V113.38H115l9.15,13.73V113.38h1.67Z"/><path class="cls-1" d="M135.38,127.45c3.24,0,5.67-2.25,5.67-5.15v-.07h-5.77v-1.49h7.41v7.9h-1.64v-4.43A6.13,6.13,0,0,1,135,129c-4,0-6.75-3.3-6.75-8s3-8,7.32-8a6.78,6.78,0,0,1,6.93,5.42h-1.7a5.08,5.08,0,0,0-5.22-3.89c-3.45,0-5.62,2.48-5.62,6.42S132,127.45,135.38,127.45Z"/><path class="cls-1" d="M168.45,113.38v15.26h-1.71V114.91l-6.12,13.73h-2.36l-6-13.74v13.74h-1.68V113.38h2.81l6.12,13.92,6.19-13.92Z"/><path class="cls-1" d="M170.13,128.64l6.24-15.26h2.51l6.17,15.26h-1.81l-1.68-4.17h-8l-1.69,4.17ZM181,123l-3.36-8.33L174.21,123Z"/><path class="cls-1" d="M192.69,127.45c3.23,0,5.66-2.25,5.66-5.15v-.07h-5.77v-1.49H200v7.9h-1.64v-4.43a6.13,6.13,0,0,1-6.1,4.75c-4,0-6.75-3.3-6.75-8s3-8,7.32-8a6.78,6.78,0,0,1,6.93,5.42h-1.7a5.08,5.08,0,0,0-5.22-3.89c-3.45,0-5.62,2.48-5.62,6.42S189.31,127.45,192.69,127.45Z"/><path class="cls-1" d="M204.24,128.64h-1.71V113.38h1.71Z"/><path class="cls-1" d="M214,127.42c2.8,0,4.63-1.64,5.24-4.53h1.71c-.7,3.76-3.27,6.07-6.95,6.07-4.36,0-7.32-3.23-7.32-8s3-8,7.32-8c3.68,0,6.25,2.31,6.95,6.06H219.2c-.61-2.89-2.44-4.53-5.24-4.53-3.44,0-5.62,2.48-5.62,6.42S210.52,127.42,214,127.42Z"/><path class="cls-1" d="M221.52,128.64l6.23-15.26h2.52l6.16,15.26h-1.81L233,124.47h-8l-1.7,4.17ZM232.34,123,229,114.65,225.6,123Z"/><path class="cls-1" d="M239.83,113.38v13.73h8.48v1.53H238.12V113.38Z"/><path class="cls-1" d="M267.51,117.79h-1.67c0-2-1.8-3.24-4.33-3.24-2.25,0-4.35,1-4.35,2.93s1.87,2.13,4.28,2.51l.94.15c2.55.39,5.7.89,5.7,4.22,0,3-2.62,4.6-6.35,4.6-4,0-6.52-1.8-6.52-4.89h1.67c0,2.13,1.91,3.39,4.84,3.39,2.63,0,4.69-1,4.69-3.12s-1.94-2.36-4.21-2.72l-1.08-.16c-2.52-.39-5.63-.86-5.63-3.94,0-2.88,2.72-4.46,6-4.46C265.09,113.06,267.51,114.87,267.51,117.79Z"/><path class="cls-1" d="M271.91,128.64h-1.7V113.38h1.7Z"/><path class="cls-1" d="M274.49,113.38h7c3.37,0,5.68,1.94,5.68,4.77s-2.32,4.79-5.68,4.79H276.2v5.7h-1.71Zm6.92,8c2.51,0,4.1-1.27,4.1-3.26s-1.58-3.25-4.07-3.25H276.2v6.51Z"/><path class="cls-1" d="M291.87,128.64h-2.33v-2.39h2.33Zm-.31-15.26V116l-.17,7.71H290l-.17-7.71v-2.64Z"/></svg>