<?xml version="1.0" encoding="utf-8"?>
<!-- Generator: Adobe Illustrator 25.3.1, SVG Export Plug-In . SVG Version: 6.00 Build 0)  -->
<svg version="1.1" id="Layer_1" xmlns="http://www.w3.org/2000/svg" xmlns:xlink="http://www.w3.org/1999/xlink" x="0px" y="0px"
	 viewBox="0 0 141.73 141.73" style="enable-background:new 0 0 141.73 141.73;" xml:space="preserve">
<style type="text/css">
	.st0{fill:none;stroke:#2B2523;stroke-width:0.5;stroke-miterlimit:10;}
	.st1{fill:none;stroke:#2B2523;stroke-width:0.5;stroke-linecap:round;stroke-linejoin:round;stroke-miterlimit:10;}
	.st2{fill:#FFFFFF;stroke:#2B2523;stroke-width:0.5;stroke-miterlimit:10;}
</style>
<g>
	<g>
		<g>
			<path class="st0" d="M81.57,99.31c0-16.12,13.04-29.16,29.16-29.16l0,0C110.73,86.27,97.69,99.31,81.57,99.31z"/>
			<line class="st0" x1="70.82" y1="110.07" x2="106.46" y2="74.42"/>
			<line class="st0" x1="89.16" y1="91.72" x2="89.16" y2="84.1"/>
			<line class="st0" x1="94.21" y1="86.68" x2="103.25" y2="86.68"/>
			<line class="st0" x1="100.75" y1="80.14" x2="100.75" y2="74.82"/>
		</g>
		<g>
			<path class="st0" d="M60.16,99.31C44.04,99.31,31,86.27,31,70.15l0,0C47.12,70.15,60.16,83.19,60.16,99.31z"/>
			<line class="st0" x1="70.91" y1="110.07" x2="35.27" y2="74.42"/>
			<line class="st0" x1="52.57" y1="91.72" x2="44.94" y2="91.72"/>
			<line class="st0" x1="47.53" y1="86.68" x2="47.53" y2="77.63"/>
			<line class="st0" x1="40.99" y1="80.14" x2="35.67" y2="80.14"/>
		</g>
	</g>
	<path class="st0" d="M103.92,114.49c-2.24,2.24-5.86,2.24-8.1,0l0,0c-2.24-2.24-5.86-2.24-8.1,0c-2.24,2.24-5.86,2.24-8.1,0l0,0
		c-2.24-2.24-5.86-2.24-8.1,0l0,0c-2.24,2.24-5.86,2.24-8.1,0l0,0c-2.24-2.24-5.86-2.24-8.1,0c-2.24,2.24-5.86,2.24-8.1,0l0,0
		c-2.24-2.24-5.86-2.24-8.1,0"/>
	<g>
		<path class="st1" d="M70.87,53.06l-4.04-22.68c-0.45-2.51,1.49-4.82,4.04-4.82h0c2.55,0,4.49,2.31,4.04,4.82L70.87,53.06z"/>
		<path class="st1" d="M70.87,53.06l13.18-18.89c1.46-2.09,4.46-2.36,6.26-0.55l0,0c1.81,1.81,1.54,4.8-0.55,6.26L70.87,53.06z"/>
		<path class="st1" d="M70.87,53.06l22.68-4.04c2.51-0.45,4.82,1.49,4.82,4.04v0c0,2.55-2.31,4.49-4.82,4.04L70.87,53.06z"/>
		<path class="st1" d="M70.87,53.06l18.89,13.18c2.09,1.46,2.36,4.46,0.55,6.26l0,0c-1.81,1.81-4.8,1.54-6.26-0.55L70.87,53.06z"/>
		<path class="st1" d="M70.87,53.06l4.04,22.68c0.45,2.51-1.49,4.82-4.04,4.82h0c-2.55,0-4.49-2.31-4.04-4.82L70.87,53.06z"/>
		<path class="st1" d="M70.87,53.06L57.69,71.96c-1.46,2.09-4.46,2.36-6.26,0.55l0,0c-1.81-1.81-1.54-4.8,0.55-6.26L70.87,53.06z"/>
		<path class="st1" d="M70.87,53.06L48.19,57.1c-2.51,0.45-4.82-1.49-4.82-4.04v0c0-2.55,2.31-4.49,4.82-4.04L70.87,53.06z"/>
		<path class="st1" d="M70.87,53.06L51.98,39.89c-2.09-1.46-2.36-4.46-0.55-6.26l0,0c1.81-1.81,4.8-1.54,6.26,0.55L70.87,53.06z"/>
		<circle class="st2" cx="70.87" cy="53.06" r="11.23"/>
	</g>
	<line class="st0" x1="70.87" y1="114.96" x2="70.87" y2="80.56"/>
</g>
</svg>
