<?xml version="1.0" encoding="utf-8"?>
<!-- Generator: Adobe Illustrator 25.3.1, SVG Export Plug-In . SVG Version: 6.00 Build 0)  -->
<svg version="1.1" id="Layer_1" xmlns="http://www.w3.org/2000/svg" xmlns:xlink="http://www.w3.org/1999/xlink" x="0px" y="0px"
	 viewBox="0 0 141.73 141.73" style="enable-background:new 0 0 141.73 141.73;" xml:space="preserve">
<style type="text/css">
	.st0{fill:none;stroke:#2B2523;stroke-width:0.5;stroke-miterlimit:10;}
	.st1{fill:#FFFFFF;stroke:#2B2523;stroke-width:0.5;stroke-miterlimit:10;}
</style>
<g>
	<path class="st0" d="M56.86,92.94c0,4.21-3.41,7.62-7.62,7.62c-4.21,0-7.62-3.41-7.62-7.62c0-0.51,0.05-1.01,0.15-1.5
		c0.27-1.38,0.92-2.63,1.83-3.63c0.02-0.02,0.04-0.04,0.05-0.06l0.41-0.41c0.02-0.02,0.04-0.03,0.05-0.05l5.13-5.13l5.12,5.13
		c0.03,0.03,0.06,0.05,0.09,0.08l0.34,0.34c0.03,0.03,0.06,0.06,0.08,0.09c0.91,1,1.56,2.25,1.83,3.63
		C56.81,91.93,56.86,92.43,56.86,92.94z"/>
	<path class="st1" d="M56.86,105.22c0,4.21-3.41,7.62-7.62,7.62c-4.21,0-7.62-3.41-7.62-7.62c0-0.51,0.05-1.01,0.15-1.5
		c0.27-1.38,0.92-2.63,1.83-3.63c0.02-0.02,0.04-0.04,0.05-0.06l0.41-0.41c0.02-0.02,0.04-0.03,0.05-0.05l5.13-5.13l5.12,5.13
		c0.03,0.03,0.06,0.05,0.09,0.08l0.34,0.34c0.03,0.03,0.06,0.06,0.08,0.09c0.91,1,1.56,2.25,1.83,3.63
		C56.81,104.2,56.86,104.7,56.86,105.22z"/>
	<path class="st0" d="M48.8,80.22L48.8,80.22c-2.29-2.29-2.29-6.01,0-8.3l26.76-26.76l8.3,8.3L57.1,80.22
		C54.81,82.51,51.09,82.51,48.8,80.22z"/>
	
		<rect x="72.67" y="43.67" transform="matrix(0.7071 0.7071 -0.7071 0.7071 57.245 -44.258)" class="st0" width="18.75" height="6.61"/>
	<path class="st0" d="M88.53,48.78l-8.3-8.3l9.87-9.87c2.29-2.29,6.01-2.29,8.3,0l0,0c2.29,2.29,2.29,6.01,0,8.3L88.53,48.78z"/>
</g>
</svg>
