<?xml version="1.0" encoding="utf-8"?>
<!-- Generator: Adobe Illustrator 25.3.1, SVG Export Plug-In . SVG Version: 6.00 Build 0)  -->
<svg version="1.1" id="Layer_1" xmlns="http://www.w3.org/2000/svg" xmlns:xlink="http://www.w3.org/1999/xlink" x="0px" y="0px"
	 viewBox="0 0 141.7 141.7" style="enable-background:new 0 0 141.7 141.7;" xml:space="preserve">
<style type="text/css">
	.st0{fill:none;stroke:#221E20;stroke-width:0.5;stroke-miterlimit:10;}
	.st1{fill:#FFFFFF;stroke:#221E20;stroke-width:0.5;stroke-miterlimit:10;}
</style>
<g>
	<path class="st0" d="M49.6,74.2c-6.8,0-12.5-5.1-13.3-11.8"/>
	<path class="st0" d="M70.7,59.3c0,10.5-8.5,19-19,19c-7.6,0-14.2-4.5-17.2-11c-1.1-2.4-1.6-5.1-1.6-7.8l0-6.1l71.9,0
		c2.3,0,4.1,1.8,4.1,4.1v0c0,2.3-1.8,4.1-4.1,4.1l-34.3,0"/>
	<path class="st0" d="M70.5,61.6"/>
	<polyline class="st0" points="34.7,53.4 51.9,36.2 69.2,53.5 	"/>
	<circle class="st0" cx="56.6" cy="47.8" r="2.2"/>
	<circle class="st0" cx="45.1" cy="48.8" r="2.2"/>
	<path class="st1" d="M48,93.3c0,1.2-1,1.3-2.2,1.3c-1.2,0-2.2-0.1-2.2-1.3s1-2.2,2.2-2.2C47,91.1,48,92.1,48,93.3z"/>
	<path class="st1" d="M62,67.4c0,1.7-1.4,3.1-3.1,3.1s-3.1-1.4-3.1-3.1c0-1.7,1.4-1.1,3.1-1.1S62,65.7,62,67.4z"/>
	<circle class="st1" cx="48.9" cy="102.4" r="3.1"/>
	<path class="st1" d="M59.7,95.2c0,1.7-1.4,1.8-3.1,1.8s-3.1-0.1-3.1-1.8s1.4-3.1,3.1-3.1S59.7,93.5,59.7,95.2z"/>
	<path class="st1" d="M62.7,81.3c0,1.2,0.3,2.2-0.9,2.2c-1.2,0-2.2-1-2.2-2.2s1-2.2,2.2-2.2C63,79.1,62.7,80,62.7,81.3z"/>
	<circle class="st1" cx="39.2" cy="100.2" r="2.2"/>
	<path class="st1" d="M46.5,82.9c0,1.2-1,2.2-2.2,2.2c-1.2,0-2.2-1-2.2-2.2s1-1.1,2.2-1.1C45.6,81.7,46.5,81.7,46.5,82.9z"/>
	<polygon class="st1" points="51.1,54.7 48.8,53.5 51.1,51.2 53.4,53.5 	"/>
	<polygon class="st1" points="37.2,88.7 34,87.8 37.2,84.6 40.4,87.8 	"/>
	<polygon class="st1" points="52.8,89.3 52,86.1 52.8,82.9 56,86.1 	"/>
	<polygon class="st1" points="52,47 49,44 52,43.4 54.9,44 	"/>
</g>
</svg>
