<?xml version="1.0" encoding="utf-8"?>
<!-- Generator: Adobe Illustrator 25.3.1, SVG Export Plug-In . SVG Version: 6.00 Build 0)  -->
<svg version="1.1" id="Layer_1" xmlns="http://www.w3.org/2000/svg" xmlns:xlink="http://www.w3.org/1999/xlink" x="0px" y="0px"
	 viewBox="0 0 141.73 141.73" style="enable-background:new 0 0 141.73 141.73;" xml:space="preserve">
<style type="text/css">
	.st0{fill:none;stroke:#2B2523;stroke-width:0.5;stroke-miterlimit:10;}
</style>
<g>
	<rect x="40.44" y="58.71" class="st0" width="17.83" height="12.83"/>
	<rect x="60.67" y="58.71" class="st0" width="17.83" height="12.83"/>
	<rect x="51.84" y="38.91" class="st0" width="17.83" height="17.83"/>
	<rect x="72.06" y="38.91" class="st0" width="17.83" height="17.83"/>
	<rect x="80.89" y="58.71" class="st0" width="17.83" height="12.83"/>
	<path class="st0" d="M88.52,94.99H53.21c-12.95,0-23.45-10.5-23.45-23.45v0h82.2v0C111.97,84.49,101.47,94.99,88.52,94.99z"/>
	<path class="st0" d="M89.96,102.82H51.77c-2.16,0-3.91-1.75-3.91-3.91v0c0-2.16,1.75-3.91,3.91-3.91h38.19
		c2.16,0,3.91,1.75,3.91,3.91v0C93.88,101.07,92.12,102.82,89.96,102.82z"/>
	<circle class="st0" cx="55.01" cy="42.28" r="1.41"/>
	<circle class="st0" cx="61.53" cy="47.32" r="1.41"/>
	<circle class="st0" cx="65.23" cy="68.52" r="1.41"/>
	<circle class="st0" cx="75.05" cy="62.65" r="1.41"/>
	<circle class="st0" cx="45.61" cy="61.84" r="1.41"/>
	<circle class="st0" cx="51.21" cy="68.59" r="1.41"/>
	<circle class="st0" cx="88.48" cy="68.52" r="1.41"/>
	<circle class="st0" cx="95.41" cy="61.24" r="1.41"/>
	<circle class="st0" cx="85.65" cy="61.24" r="1.41"/>
	<circle class="st0" cx="55.01" cy="61.84" r="1.41"/>
	<circle class="st0" cx="55.01" cy="52.04" r="1.41"/>
	<circle class="st0" cx="76.46" cy="52.99" r="1.41"/>
	<circle class="st0" cx="76.05" cy="42.28" r="1.41"/>
	<circle class="st0" cx="84.86" cy="48.73" r="1.41"/>
	<circle class="st0" cx="65.61" cy="52.99" r="1.41"/>
</g>
</svg>
