<?xml version="1.0" encoding="utf-8"?>
<!-- Generator: Adobe Illustrator 25.3.1, SVG Export Plug-In . SVG Version: 6.00 Build 0)  -->
<svg version="1.1" id="Layer_1" xmlns="http://www.w3.org/2000/svg" xmlns:xlink="http://www.w3.org/1999/xlink" x="0px" y="0px"
	 viewBox="0 0 141.7 141.7" style="enable-background:new 0 0 141.7 141.7;" xml:space="preserve">
<style type="text/css">
	.st0{fill:none;stroke:#231F20;stroke-width:0.4;stroke-miterlimit:10;}
	.st1{fill:#FFFFFF;stroke:#231F20;stroke-width:0.4;stroke-miterlimit:10;}
	.st2{fill:#00B078;}
</style>
<g>
	<polygon class="st0" points="109.3,92.9 74.8,49.6 40.3,92.9 74.8,106.7 	"/>
	<line class="st0" x1="74.8" y1="106.7" x2="74.8" y2="49.9"/>
	<path class="st1" d="M54.5,104.5H34c-0.9,0-1.6-0.7-1.6-1.6V78.5c0-0.9,0.7-1.6,1.6-1.6h20.6c0.9,0,1.6,0.7,1.6,1.6v24.4
		C56.1,103.8,55.4,104.5,54.5,104.5z"/>
	<path class="st0" d="M74.8,50.3C74.8,41.8,68,35,59.5,35h0c-8.4,0-15.3,6.8-15.3,15.3v26.7"/>
	<line class="st0" x1="59.6" y1="94" x2="63.8" y2="98.1"/>
	<line class="st0" x1="87.8" y1="83" x2="87.8" y2="88.6"/>
	<line class="st0" x1="82.8" y1="91.8" x2="88.3" y2="91.8"/>
	<line class="st0" x1="91.8" y1="91.8" x2="91.8" y2="97.8"/>
	<line class="st0" x1="71.9" y1="91.1" x2="65" y2="91.1"/>
	<circle class="st0" cx="60.7" cy="89.8" r="1.3"/>
	<circle class="st0" cx="69.4" cy="98.2" r="2.1"/>
	<circle class="st0" cx="97.1" cy="91.1" r="2.1"/>
	<circle class="st0" cx="80" cy="96" r="1.5"/>
	<circle class="st0" cx="80.6" cy="86.8" r="2.1"/>
	<g>
		<rect x="43" y="82.4" class="st2" width="2.3" height="2.3"/>
		<path class="st2" d="M47.7,98.6v-2.3c-1.4-0.1-2.4-1.3-2.4-2.7v-4.2h2.9V87h-8.1v2.3H43v4.2C43,96.2,45.1,98.4,47.7,98.6z"/>
		<g>
			<path class="st2" d="M42.5,95.2c-0.4,0.6-1.1,1-1.9,1.1v2.3c1.2-0.1,2.2-0.5,3.1-1.3C43.1,96.7,42.7,95.9,42.5,95.2z"/>
		</g>
	</g>
</g>
</svg>
