<?xml version="1.0" encoding="utf-8"?>
<!-- Generator: Adobe Illustrator 25.3.1, SVG Export Plug-In . SVG Version: 6.00 Build 0)  -->
<svg version="1.1" id="Layer_1" xmlns="http://www.w3.org/2000/svg" xmlns:xlink="http://www.w3.org/1999/xlink" x="0px" y="0px"
	 viewBox="0 0 141.7 141.7" style="enable-background:new 0 0 141.7 141.7;" xml:space="preserve">
<style type="text/css">
	.st0{fill:#FFFFFF;stroke:#221E20;stroke-width:0.5;stroke-miterlimit:10;}
	.st1{fill:#E6E7E7;}
	.st2{fill:none;stroke:#221E20;stroke-width:0.5;stroke-miterlimit:10;}
</style>
<g>
	<path class="st0" d="M75.4,85.7V40.3c0-3-2.5-5.5-5.5-5.5s-5.5,2.5-5.5,5.5v45.4c-3.5,1.9-5.8,5.6-5.8,9.9c0,6.2,5,11.3,11.3,11.3
		s11.3-5,11.3-11.3C81.2,91.3,78.8,87.6,75.4,85.7z"/>
	<path class="st1" d="M72.5,89.6V51.3c0-1.4-1.1-2.6-2.6-2.6s-2.6,1.1-2.6,2.6v38.3c-2.3,1-4,3.3-4,6c0,3.6,2.9,6.5,6.5,6.5
		s6.5-2.9,6.5-6.5C76.4,92.9,74.8,90.6,72.5,89.6z"/>
	<line class="st2" x1="78" y1="42.4" x2="83.1" y2="42.4"/>
	<line class="st2" x1="78" y1="48.7" x2="83.1" y2="48.7"/>
	<line class="st2" x1="78" y1="55" x2="83.1" y2="55"/>
	<line class="st2" x1="78" y1="61.4" x2="83.1" y2="61.4"/>
	<line class="st2" x1="78" y1="67.7" x2="83.1" y2="67.7"/>
</g>
</svg>
