<?xml version="1.0" encoding="utf-8"?>
<!-- Generator: Adobe Illustrator 25.3.1, SVG Export Plug-In . SVG Version: 6.00 Build 0)  -->
<svg version="1.1" id="Layer_1" xmlns="http://www.w3.org/2000/svg" xmlns:xlink="http://www.w3.org/1999/xlink" x="0px" y="0px"
	 viewBox="0 0 141.7 141.7" style="enable-background:new 0 0 141.7 141.7;" xml:space="preserve">
<style type="text/css">
	.st0{fill:none;stroke:#221E20;stroke-width:0.5;stroke-miterlimit:10;}
</style>
<g>
	<circle class="st0" cx="70.8" cy="70.8" r="29.4"/>
	<line class="st0" x1="70.8" y1="45.6" x2="70.8" y2="52"/>
	<line class="st0" x1="70.8" y1="90.7" x2="70.8" y2="97.1"/>
	<line class="st0" x1="96.6" y1="71.3" x2="90.2" y2="71.3"/>
	<line class="st0" x1="51.5" y1="71.3" x2="45.1" y2="71.3"/>
	<line class="st0" x1="93.3" y1="58.7" x2="87.7" y2="61.8"/>
	<line class="st0" x1="54" y1="80.8" x2="48.4" y2="84"/>
	<line class="st0" x1="83.5" y1="93.8" x2="80.3" y2="88.2"/>
	<line class="st0" x1="61.4" y1="54.5" x2="58.2" y2="48.9"/>
	<line class="st0" x1="80.6" y1="54.6" x2="83.8" y2="49.1"/>
	<line class="st0" x1="61.1" y1="88" x2="57.9" y2="93.6"/>
	<line class="st0" x1="93.1" y1="84.3" x2="87.6" y2="81.1"/>
	<line class="st0" x1="54.1" y1="61.6" x2="48.6" y2="58.3"/>
	<line class="st0" x1="70.8" y1="70.8" x2="70.8" y2="59.9"/>
	<line class="st0" x1="70.8" y1="70.8" x2="79.4" y2="56.7"/>
</g>
</svg>
